<?xml version="1.0" standalone="no"?>
 <!DOCTYPE svg PUBLIC "-//W3C//DTD SVG 1.1//EN" 
 "http://www.w3.org/Graphics/SVG/1.1/DTD/svg11.dtd"> 
<svg xmlns="http://www.w3.org/2000/svg" version="1.1" 
    width="4.58724cm" height="5.42798cm" viewBox="0 0 18060 21370 ">
<title>SVG Picture created as Nokia5110-3310-brd.svg date 2018/10/02 08:43:57 </title>
  <desc>Picture generated by PCBNEW </desc>
<g style="fill:#000000; fill-opacity:1;stroke:#000000; stroke-opacity:1;
stroke-linecap:round; stroke-linejoin:round; "
 transform="translate(0 0) scale(1 1)">
</g>
<g style="fill:#000000; fill-opacity:0.0; 
stroke:#000000; stroke-width:-0.000393701; stroke-opacity:1; 
stroke-linecap:round; stroke-linejoin:round;">
</g>
<g style="fill:#000000; fill-opacity:0.0; 
stroke:#000000; stroke-width:118.11; stroke-opacity:1; 
stroke-linecap:round; stroke-linejoin:round;">
<path d="M12661 19508
L12633 19564
L12577 19592
L12071 19592
" />
<path d="M12633 19058
L12661 19114
L12661 19227
L12633 19283
L12577 19311
L12352 19311
L12296 19283
L12267 19227
L12267 19114
L12296 19058
L12352 19030
L12408 19030
L12464 19311
" />
<path d="M12661 18524
L12071 18524
" />
<path d="M12633 18524
L12661 18580
L12661 18693
L12633 18749
L12605 18777
L12549 18805
L12380 18805
L12324 18777
L12296 18749
L12267 18693
L12267 18580
L12296 18524
" />
<path d="M11633 19677
L11661 19621
L11661 19508
L11633 19452
L11577 19424
L11549 19424
L11492 19452
L11464 19508
L11464 19592
L11436 19649
L11380 19677
L11352 19677
L11296 19649
L11267 19592
L11267 19508
L11296 19452
" />
<path d="M11633 18918
L11661 18974
L11661 19086
L11633 19143
L11605 19171
L11549 19199
L11380 19199
L11324 19171
L11296 19143
L11267 19086
L11267 18974
L11296 18918
" />
<path d="M11661 18664
L11071 18664
" />
<path d="M11436 18608
L11661 18439
" />
<path d="M11267 18439
L11492 18664
" />
<path d="M10661 19339
L10071 19339
" />
<path d="M10633 19339
L10661 19396
L10661 19508
L10633 19564
L10605 19592
L10549 19621
L10380 19621
L10324 19592
L10296 19564
L10267 19508
L10267 19396
L10296 19339
" />
<path d="M10661 19058
L10267 19058
" />
<path d="M10071 19058
L10099 19086
L10127 19058
L10099 19030
L10071 19058
L10127 19058
" />
<path d="M10267 18777
L10661 18777
" />
<path d="M10324 18777
L10296 18749
L10267 18693
L10267 18608
L10296 18552
L10352 18524
L10661 18524
" />
<path d="M9661 19494
L9071 19494
" />
<path d="M9633 19494
L9661 19550
L9661 19663
L9633 19719
L9605 19747
L9549 19775
L9380 19775
L9324 19747
L9296 19719
L9267 19663
L9267 19550
L9296 19494
" />
<path d="M9043 18791
L9802 19297
" />
<path d="M8815 18735
L8815 18229
" />
<path d="M9633 18341
L9661 18397
L9661 18510
L9633 18566
L9605 18594
L9549 18622
L9380 18622
L9324 18594
L9296 18566
L9267 18510
L9267 18397
L9296 18341
" />
<path d="M7815 19899
L7815 19533
" />
<path d="M8661 19758
L8267 19758
" />
<path d="M8380 19758
L8324 19730
L8296 19702
L8267 19646
L8267 19589
" />
<path d="M7815 19533
L7815 19055
" />
<path d="M8633 19421
L8661 19364
L8661 19252
L8633 19196
L8577 19168
L8549 19168
L8492 19196
L8464 19252
L8464 19336
L8436 19393
L8380 19421
L8352 19421
L8296 19393
L8267 19336
L8267 19252
L8296 19196
" />
<path d="M7815 19055
L7815 18718
" />
<path d="M8267 18999
L8267 18774
" />
<path d="M8071 18914
L8577 18914
L8633 18886
L8661 18830
L8661 18774
" />
<path d="M6815 19803
L6815 19325
" />
<path d="M7633 19691
L7661 19635
L7661 19522
L7633 19466
L7577 19438
L7549 19438
L7492 19466
L7464 19522
L7464 19607
L7436 19663
L7380 19691
L7352 19691
L7296 19663
L7267 19607
L7267 19522
L7296 19466
" />
<path d="M6815 19325
L6815 18819
" />
<path d="M7633 18932
L7661 18988
L7661 19100
L7633 19157
L7605 19185
L7549 19213
L7380 19213
L7324 19185
L7296 19157
L7267 19100
L7267 18988
L7296 18932
" />
<path d="M6815 18819
L6815 18313
" />
<path d="M7633 18454
L7661 18510
L7661 18622
L7633 18679
L7577 18707
L7352 18707
L7296 18679
L7267 18622
L7267 18510
L7296 18454
L7352 18425
L7408 18425
L7464 18707
" />
<path d="M6267 19466
L6746 19466
L6802 19494
L6830 19522
L6858 19578
L6858 19663
L6830 19719
" />
<path d="M6633 19466
L6661 19522
L6661 19635
L6633 19691
L6605 19719
L6549 19747
L6380 19747
L6324 19719
L6296 19691
L6267 19635
L6267 19522
L6296 19466
" />
<path d="M6267 19185
L6661 19185
" />
<path d="M6324 19185
L6296 19157
L6267 19100
L6267 19016
L6296 18960
L6352 18932
L6661 18932
" />
<path d="M6661 18397
L6071 18397
" />
<path d="M6633 18397
L6661 18454
L6661 18566
L6633 18622
L6605 18650
L6549 18679
L6380 18679
L6324 18650
L6296 18622
L6267 18566
L6267 18454
L6296 18397
" />
<path d="M5267 19705
L5661 19564
L5267 19424
" />
<path d="M5633 18946
L5661 19002
L5661 19114
L5633 19171
L5605 19199
L5549 19227
L5380 19227
L5324 19199
L5296 19171
L5267 19114
L5267 19002
L5296 18946
" />
<path d="M5633 18439
L5661 18496
L5661 18608
L5633 18664
L5605 18693
L5549 18721
L5380 18721
L5324 18693
L5296 18664
L5267 18608
L5267 18496
L5296 18439
" />
<path d="M15346 17525
L15346 16935
" />
<path d="M15402 17300
L15571 17525
" />
<path d="M15571 17132
L15346 17357
" />
<path d="M2446 17525
L2446 16935
" />
<path d="M2502 17300
L2671 17525
" />
<path d="M2671 17132
L2446 17357
" />
<path d="M15146 12625
L15146 12035
" />
<path d="M15202 12400
L15371 12625
" />
<path d="M15371 12232
L15146 12457
" />
<path d="M2446 12325
L2446 11735
" />
<path d="M2502 12100
L2671 12325
" />
<path d="M2671 11932
L2446 12157
" />
<path d="M1284 17522
L1239 17499
L1217 17454
L1217 17049
" />
<path d="M1644 17499
L1599 17522
L1509 17522
L1464 17499
L1442 17454
L1442 17274
L1464 17229
L1509 17207
L1599 17207
L1644 17229
L1667 17274
L1667 17319
L1442 17364
" />
<path d="M2071 17522
L2071 17049
" />
<path d="M2071 17499
L2026 17522
L1936 17522
L1891 17499
L1869 17477
L1847 17432
L1847 17297
L1869 17252
L1891 17229
L1936 17207
L2026 17207
L2071 17229
" />
<path d="M15984 17522
L15939 17499
L15917 17454
L15917 17049
" />
<path d="M16344 17499
L16299 17522
L16209 17522
L16164 17499
L16142 17454
L16142 17274
L16164 17229
L16209 17207
L16299 17207
L16344 17229
L16367 17274
L16367 17319
L16142 17364
" />
<path d="M16771 17522
L16771 17049
" />
<path d="M16771 17499
L16726 17522
L16636 17522
L16591 17499
L16569 17477
L16547 17432
L16547 17297
L16569 17252
L16591 17229
L16636 17207
L16726 17207
L16771 17229
" />
<path d="M15984 12572
L15939 12549
L15917 12504
L15917 12099
" />
<path d="M16344 12549
L16299 12572
L16209 12572
L16164 12549
L16142 12504
L16142 12324
L16164 12279
L16209 12257
L16299 12257
L16344 12279
L16367 12324
L16367 12369
L16142 12414
" />
<path d="M16771 12572
L16771 12099
" />
<path d="M16771 12549
L16726 12572
L16636 12572
L16591 12549
L16569 12527
L16547 12482
L16547 12347
L16569 12302
L16591 12279
L16636 12257
L16726 12257
L16771 12279
" />
<path d="M1284 12272
L1239 12249
L1217 12204
L1217 11799
" />
<path d="M1644 12249
L1599 12272
L1509 12272
L1464 12249
L1442 12204
L1442 12024
L1464 11979
L1509 11957
L1599 11957
L1644 11979
L1667 12024
L1667 12069
L1442 12114
" />
<path d="M2071 12272
L2071 11799
" />
<path d="M2071 12249
L2026 12272
L1936 12272
L1891 12249
L1869 12227
L1847 12182
L1847 12047
L1869 12002
L1891 11979
L1936 11957
L2026 11957
L2071 11979
" />
<path d="M3413 5772
L3143 5772
" />
<path d="M3278 5772
L3278 5299
L3233 5367
L3188 5412
L3143 5434
" />
<path d="M3705 5299
L3750 5299
L3795 5322
L3818 5344
L3840 5389
L3863 5479
L3863 5592
L3840 5682
L3818 5727
L3795 5749
L3750 5772
L3705 5772
L3660 5749
L3638 5727
L3615 5682
L3593 5592
L3593 5479
L3615 5389
L3638 5344
L3660 5322
L3705 5299
" />
<path d="M4155 5299
L4200 5299
L4245 5322
L4268 5344
L4290 5389
L4313 5479
L4313 5592
L4290 5682
L4268 5727
L4245 5749
L4200 5772
L4155 5772
L4110 5749
L4088 5727
L4065 5682
L4043 5592
L4043 5479
L4065 5389
L4088 5344
L4110 5322
L4155 5299
" />
<path d="M4515 5457
L4515 5772
" />
<path d="M4515 5502
L4538 5479
L4583 5457
L4650 5457
L4695 5479
L4718 5524
L4718 5772
" />
<path d="M5100 5524
L4943 5524
" />
<path d="M4943 5772
L4943 5299
L5168 5299
" />
<path d="M13593 5772
L13323 5772
" />
<path d="M13458 5772
L13458 5299
L13413 5367
L13368 5412
L13323 5434
" />
<path d="M14020 5299
L13795 5299
L13773 5524
L13795 5502
L13840 5479
L13953 5479
L13998 5502
L14020 5524
L14043 5569
L14043 5682
L14020 5727
L13998 5749
L13953 5772
L13840 5772
L13795 5749
L13773 5727
" />
<path d="M14335 5299
L14380 5299
L14425 5322
L14448 5344
L14470 5389
L14493 5479
L14493 5592
L14470 5682
L14448 5727
L14425 5749
L14380 5772
L14335 5772
L14290 5749
L14268 5727
L14245 5682
L14223 5592
L14223 5479
L14245 5389
L14268 5344
L14290 5322
L14335 5299
" />
<path d="M14965 5772
L14808 5547
" />
<path d="M14695 5772
L14695 5299
L14875 5299
L14920 5322
L14943 5344
L14965 5389
L14965 5457
L14943 5502
L14920 5524
L14875 5547
L14695 5547
" />
</g>
<g style="fill:#000000; fill-opacity:0.0; 
stroke:#000000; stroke-width:0; stroke-opacity:1; 
stroke-linecap:round; stroke-linejoin:round;">
</g>
<g style="fill:#000000; fill-opacity:1.0; 
stroke:#000000; stroke-width:0; stroke-opacity:1; 
stroke-linecap:round; stroke-linejoin:round;">
<polyline style="fill-rule:evenodd;"
points="2168,9876
2168,10476
1302,10476
1302,9876
2168,9876
" /> 
<polyline style="fill-rule:evenodd;"
points="1308,11373
1308,10773
2174,10773
2174,11373
1308,11373
" /> 
<polyline style="fill-rule:evenodd;"
points="1303,16772
1303,16172
2169,16172
2169,16772
1303,16772
" /> 
<polyline style="fill-rule:evenodd;"
points="1300,15866
1300,15266
2166,15266
2166,15866
1300,15866
" /> 
<polyline style="fill-rule:evenodd;"
points="15900,15784
15900,15184
16766,15184
16766,15784
15900,15784
" /> 
<polyline style="fill-rule:evenodd;"
points="15900,16696
15900,16096
16766,16096
16766,16696
15900,16696
" /> 
<polyline style="fill-rule:evenodd;"
points="15889,10461
15889,9861
16755,9861
16755,10461
15889,10461
" /> 
<polyline style="fill-rule:evenodd;"
points="15894,11365
15894,10765
16760,10765
16760,11365
15894,11365
" /> 
<circle cx="9529.53" cy="20348.7" r="393.701" /> 
</g>
<g style="fill:#000000; fill-opacity:1.0; 
stroke:#000000; stroke-width:39.3701; stroke-opacity:1; 
stroke-linecap:round; stroke-linejoin:round;">
</g>
<g style="fill:#000000; fill-opacity:1.0; 
stroke:#000000; stroke-width:0; stroke-opacity:1; 
stroke-linecap:round; stroke-linejoin:round;">
<circle cx="5529.53" cy="20348.7" r="393.701" /> 
</g>
<g style="fill:#000000; fill-opacity:1.0; 
stroke:#000000; stroke-width:39.3701; stroke-opacity:1; 
stroke-linecap:round; stroke-linejoin:round;">
</g>
<g style="fill:#000000; fill-opacity:1.0; 
stroke:#000000; stroke-width:0; stroke-opacity:1; 
stroke-linecap:round; stroke-linejoin:round;">
<circle cx="6529.53" cy="20348.7" r="393.701" /> 
</g>
<g style="fill:#000000; fill-opacity:1.0; 
stroke:#000000; stroke-width:39.3701; stroke-opacity:1; 
stroke-linecap:round; stroke-linejoin:round;">
</g>
<g style="fill:#000000; fill-opacity:1.0; 
stroke:#000000; stroke-width:0; stroke-opacity:1; 
stroke-linecap:round; stroke-linejoin:round;">
<circle cx="7529.53" cy="20348.7" r="393.701" /> 
</g>
<g style="fill:#000000; fill-opacity:1.0; 
stroke:#000000; stroke-width:39.3701; stroke-opacity:1; 
stroke-linecap:round; stroke-linejoin:round;">
</g>
<g style="fill:#000000; fill-opacity:1.0; 
stroke:#000000; stroke-width:0; stroke-opacity:1; 
stroke-linecap:round; stroke-linejoin:round;">
<circle cx="8529.53" cy="20348.7" r="393.701" /> 
</g>
<g style="fill:#000000; fill-opacity:1.0; 
stroke:#000000; stroke-width:39.3701; stroke-opacity:1; 
stroke-linecap:round; stroke-linejoin:round;">
</g>
<g style="fill:#000000; fill-opacity:1.0; 
stroke:#000000; stroke-width:0; stroke-opacity:1; 
stroke-linecap:round; stroke-linejoin:round;">
<circle cx="12529.5" cy="20348.7" r="393.701" /> 
</g>
<g style="fill:#000000; fill-opacity:1.0; 
stroke:#000000; stroke-width:39.3701; stroke-opacity:1; 
stroke-linecap:round; stroke-linejoin:round;">
</g>
<g style="fill:#000000; fill-opacity:1.0; 
stroke:#000000; stroke-width:0; stroke-opacity:1; 
stroke-linecap:round; stroke-linejoin:round;">
<circle cx="10529.5" cy="20348.7" r="393.701" /> 
</g>
<g style="fill:#000000; fill-opacity:1.0; 
stroke:#000000; stroke-width:39.3701; stroke-opacity:1; 
stroke-linecap:round; stroke-linejoin:round;">
</g>
<g style="fill:#000000; fill-opacity:1.0; 
stroke:#000000; stroke-width:0; stroke-opacity:1; 
stroke-linecap:round; stroke-linejoin:round;">
<circle cx="11529.5" cy="20348.7" r="393.701" /> 
</g>
<g style="fill:#000000; fill-opacity:1.0; 
stroke:#000000; stroke-width:39.3701; stroke-opacity:1; 
stroke-linecap:round; stroke-linejoin:round;">
</g>
<g style="fill:#000000; fill-opacity:1.0; 
stroke:#000000; stroke-width:0; stroke-opacity:1; 
stroke-linecap:round; stroke-linejoin:round;">
<circle cx="5529.53" cy="4348.66" r="393.701" /> 
</g>
<g style="fill:#000000; fill-opacity:1.0; 
stroke:#000000; stroke-width:39.3701; stroke-opacity:1; 
stroke-linecap:round; stroke-linejoin:round;">
</g>
<g style="fill:#000000; fill-opacity:1.0; 
stroke:#000000; stroke-width:0; stroke-opacity:1; 
stroke-linecap:round; stroke-linejoin:round;">
<circle cx="6529.53" cy="4348.66" r="393.701" /> 
</g>
<g style="fill:#000000; fill-opacity:1.0; 
stroke:#000000; stroke-width:39.3701; stroke-opacity:1; 
stroke-linecap:round; stroke-linejoin:round;">
</g>
<g style="fill:#000000; fill-opacity:1.0; 
stroke:#000000; stroke-width:0; stroke-opacity:1; 
stroke-linecap:round; stroke-linejoin:round;">
<circle cx="7529.53" cy="4348.66" r="393.701" /> 
</g>
<g style="fill:#000000; fill-opacity:1.0; 
stroke:#000000; stroke-width:39.3701; stroke-opacity:1; 
stroke-linecap:round; stroke-linejoin:round;">
</g>
<g style="fill:#000000; fill-opacity:1.0; 
stroke:#000000; stroke-width:0; stroke-opacity:1; 
stroke-linecap:round; stroke-linejoin:round;">
<circle cx="8529.53" cy="4348.66" r="393.701" /> 
</g>
<g style="fill:#000000; fill-opacity:1.0; 
stroke:#000000; stroke-width:39.3701; stroke-opacity:1; 
stroke-linecap:round; stroke-linejoin:round;">
</g>
<g style="fill:#000000; fill-opacity:1.0; 
stroke:#000000; stroke-width:0; stroke-opacity:1; 
stroke-linecap:round; stroke-linejoin:round;">
<circle cx="12529.5" cy="4348.66" r="393.701" /> 
</g>
<g style="fill:#000000; fill-opacity:1.0; 
stroke:#000000; stroke-width:39.3701; stroke-opacity:1; 
stroke-linecap:round; stroke-linejoin:round;">
</g>
<g style="fill:#000000; fill-opacity:1.0; 
stroke:#000000; stroke-width:0; stroke-opacity:1; 
stroke-linecap:round; stroke-linejoin:round;">
<circle cx="11529.5" cy="4348.66" r="393.701" /> 
</g>
<g style="fill:#000000; fill-opacity:1.0; 
stroke:#000000; stroke-width:39.3701; stroke-opacity:1; 
stroke-linecap:round; stroke-linejoin:round;">
</g>
<g style="fill:#000000; fill-opacity:1.0; 
stroke:#000000; stroke-width:0; stroke-opacity:1; 
stroke-linecap:round; stroke-linejoin:round;">
<circle cx="10529.5" cy="4348.66" r="393.701" /> 
</g>
<g style="fill:#000000; fill-opacity:1.0; 
stroke:#000000; stroke-width:39.3701; stroke-opacity:1; 
stroke-linecap:round; stroke-linejoin:round;">
</g>
<g style="fill:#000000; fill-opacity:1.0; 
stroke:#000000; stroke-width:0; stroke-opacity:1; 
stroke-linecap:round; stroke-linejoin:round;">
<circle cx="9529.53" cy="4348.66" r="393.701" /> 
</g>
<g style="fill:#000000; fill-opacity:1.0; 
stroke:#000000; stroke-width:39.3701; stroke-opacity:1; 
stroke-linecap:round; stroke-linejoin:round;">
</g>
<g style="fill:#000000; fill-opacity:1.0; 
stroke:#000000; stroke-width:0; stroke-opacity:1; 
stroke-linecap:round; stroke-linejoin:round;">
<polyline style="fill-rule:evenodd;"
points="8124,7043
8124,5862
8360,5862
8360,7043
8124,7043
" /> 
<polyline style="fill-rule:evenodd;"
points="8517,7043
8517,5862
8753,5862
8753,7043
8517,7043
" /> 
<polyline style="fill-rule:evenodd;"
points="8911,7043
8911,5862
9147,5862
9147,7043
8911,7043
" /> 
<polyline style="fill-rule:evenodd;"
points="7730,7043
7730,5862
7966,5862
7966,7043
7730,7043
" /> 
<polyline style="fill-rule:evenodd;"
points="7336,7043
7336,5862
7572,5862
7572,7043
7336,7043
" /> 
<polyline style="fill-rule:evenodd;"
points="9305,7043
9305,5862
9541,5862
9541,7043
9305,7043
" /> 
<polyline style="fill-rule:evenodd;"
points="9698,7043
9698,5862
9935,5862
9935,7043
9698,7043
" /> 
<polyline style="fill-rule:evenodd;"
points="10092,7043
10092,5862
10328,5862
10328,7043
10092,7043
" /> 
<polyline style="fill-rule:evenodd;"
points="10486,7043
10486,5862
10722,5862
10722,7043
10486,7043
" /> 
<polyline style="fill-rule:evenodd;"
points="3829,4848
3229,4848
3229,3848
3829,3848
3829,4848
" /> 
<polyline style="fill-rule:evenodd;"
points="2829,4848
2229,4848
2229,3848
2829,3848
2829,4848
" /> 
<polyline style="fill-rule:evenodd;"
points="14829,4848
14229,4848
14229,3848
14829,3848
14829,4848
" /> 
<polyline style="fill-rule:evenodd;"
points="15829,4848
15229,4848
15229,3848
15829,3848
15829,4848
" /> 
<circle cx="1029.53" cy="4348.66" r="787.402" /> 
</g>
<g style="fill:#000000; fill-opacity:1.0; 
stroke:#000000; stroke-width:39.3701; stroke-opacity:1; 
stroke-linecap:round; stroke-linejoin:round;">
</g>
<g style="fill:#000000; fill-opacity:1.0; 
stroke:#000000; stroke-width:0; stroke-opacity:1; 
stroke-linecap:round; stroke-linejoin:round;">
<circle cx="17029.5" cy="4348.66" r="787.402" /> 
</g>
<g style="fill:#000000; fill-opacity:1.0; 
stroke:#000000; stroke-width:39.3701; stroke-opacity:1; 
stroke-linecap:round; stroke-linejoin:round;">
</g>
<g style="fill:#000000; fill-opacity:1.0; 
stroke:#000000; stroke-width:0; stroke-opacity:1; 
stroke-linecap:round; stroke-linejoin:round;">
<circle cx="17029.5" cy="20348.7" r="787.402" /> 
</g>
<g style="fill:#000000; fill-opacity:1.0; 
stroke:#000000; stroke-width:39.3701; stroke-opacity:1; 
stroke-linecap:round; stroke-linejoin:round;">
</g>
<g style="fill:#000000; fill-opacity:1.0; 
stroke:#000000; stroke-width:0; stroke-opacity:1; 
stroke-linecap:round; stroke-linejoin:round;">
<circle cx="1029.53" cy="20348.7" r="787.402" /> 
</g>
<g style="fill:#000000; fill-opacity:1.0; 
stroke:#000000; stroke-width:39.3701; stroke-opacity:1; 
stroke-linecap:round; stroke-linejoin:round;">
</g>
<g style="fill:#000000; fill-opacity:1.0; 
stroke:#000000; stroke-width:0; stroke-opacity:1; 
stroke-linecap:round; stroke-linejoin:round;">
<circle cx="2239.53" cy="7829.66" r="300" /> 
</g>
<g style="fill:#000000; fill-opacity:1.0; 
stroke:#000000; stroke-width:39.3701; stroke-opacity:1; 
stroke-linecap:round; stroke-linejoin:round;">
</g>
<g style="fill:#000000; fill-opacity:1.0; 
stroke:#000000; stroke-width:0; stroke-opacity:1; 
stroke-linecap:round; stroke-linejoin:round;">
<circle cx="15826.5" cy="18266.7" r="300" /> 
</g>
<g style="fill:#000000; fill-opacity:1.0; 
stroke:#000000; stroke-width:39.3701; stroke-opacity:1; 
stroke-linecap:round; stroke-linejoin:round;">
</g>
<g style="fill:#000000; fill-opacity:1.0; 
stroke:#000000; stroke-width:0; stroke-opacity:1; 
stroke-linecap:round; stroke-linejoin:round;">
<polyline style="fill-rule:evenodd;"
points="3752,4014
3762,4016
3771,4018
3781,4021
3789,4025
3798,4030
3805,4036
3812,4043
3819,4050
3825,4057
3830,4066
3834,4074
3837,4084
3839,4093
3841,4102
3841,4112
3841,4604
3841,4614
3839,4623
3837,4633
3834,4642
3830,4651
3825,4659
3819,4667
3812,4674
3805,4680
3798,4686
3789,4691
3781,4695
3771,4698
3762,4701
3752,4702
3743,4703
3448,4703
3438,4702
3428,4701
3419,4698
3410,4695
3401,4691
3393,4686
3385,4680
3378,4674
3371,4667
3366,4659
3361,4651
3357,4642
3353,4633
3351,4623
3350,4614
3349,4604
3349,4112
3350,4102
3351,4093
3353,4084
3357,4074
3361,4066
3366,4057
3371,4050
3378,4043
3385,4036
3393,4030
3401,4025
3410,4021
3419,4018
3428,4016
3438,4014
3448,4014
3743,4014
3752,4014
" /> 
<polyline style="fill-rule:evenodd;"
points="2650,4014
2660,4016
2669,4018
2678,4021
2687,4025
2695,4030
2703,4036
2710,4043
2717,4050
2722,4057
2727,4066
2731,4074
2735,4084
2737,4093
2738,4102
2739,4112
2739,4604
2738,4614
2737,4623
2735,4633
2731,4642
2727,4651
2722,4659
2717,4667
2710,4674
2703,4680
2695,4686
2687,4691
2678,4695
2669,4698
2660,4701
2650,4702
2640,4703
2345,4703
2336,4702
2326,4701
2317,4698
2308,4695
2299,4691
2291,4686
2283,4680
2276,4674
2269,4667
2263,4659
2258,4651
2254,4642
2251,4633
2249,4623
2247,4614
2247,4604
2247,4112
2247,4102
2249,4093
2251,4084
2254,4074
2258,4066
2263,4057
2269,4050
2276,4043
2283,4036
2291,4030
2299,4025
2308,4021
2317,4018
2326,4016
2336,4014
2345,4014
2640,4014
2650,4014
" /> 
<polyline style="fill-rule:evenodd;"
points="1711,16198
1721,16199
1730,16202
1739,16205
1748,16209
1756,16214
1764,16220
1771,16226
1778,16233
1783,16241
1788,16249
1792,16258
1796,16267
1798,16277
1799,16286
1800,16296
1800,16621
1799,16630
1798,16640
1796,16649
1792,16658
1788,16667
1783,16675
1778,16683
1771,16690
1764,16697
1756,16702
1748,16707
1739,16711
1730,16715
1721,16717
1711,16719
1702,16719
1387,16719
1377,16719
1367,16717
1358,16715
1349,16711
1340,16707
1332,16702
1324,16697
1317,16690
1310,16683
1305,16675
1300,16667
1296,16658
1292,16649
1290,16640
1289,16630
1288,16621
1288,16296
1289,16286
1290,16277
1292,16267
1296,16258
1300,16249
1305,16241
1310,16233
1317,16226
1324,16220
1332,16214
1340,16209
1349,16205
1358,16202
1367,16199
1377,16198
1387,16197
1702,16197
1711,16198
" /> 
<polyline style="fill-rule:evenodd;"
points="1711,15440
1721,15441
1730,15444
1739,15447
1748,15451
1756,15456
1764,15462
1771,15468
1778,15475
1783,15483
1788,15491
1792,15500
1796,15509
1798,15519
1799,15528
1800,15538
1800,15863
1799,15872
1798,15882
1796,15891
1792,15900
1788,15909
1783,15917
1778,15925
1771,15932
1764,15939
1756,15945
1748,15949
1739,15954
1730,15957
1721,15959
1711,15961
1702,15961
1387,15961
1377,15961
1367,15959
1358,15957
1349,15954
1340,15949
1332,15945
1324,15939
1317,15932
1310,15925
1305,15917
1300,15909
1296,15900
1292,15891
1290,15882
1289,15872
1288,15863
1288,15538
1289,15528
1290,15519
1292,15509
1296,15500
1300,15491
1305,15483
1310,15475
1317,15468
1324,15462
1332,15456
1340,15451
1349,15447
1358,15444
1367,15441
1377,15440
1387,15439
1702,15439
1711,15440
" /> 
<polyline style="fill-rule:evenodd;"
points="1711,10019
1721,10020
1730,10023
1739,10026
1748,10030
1756,10035
1764,10041
1771,10047
1778,10054
1783,10062
1788,10070
1792,10079
1796,10088
1798,10098
1799,10107
1800,10117
1800,10442
1799,10451
1798,10461
1796,10470
1792,10479
1788,10488
1783,10496
1778,10504
1771,10511
1764,10518
1756,10523
1748,10528
1739,10533
1730,10536
1721,10538
1711,10540
1702,10540
1387,10540
1377,10540
1367,10538
1358,10536
1349,10533
1340,10528
1332,10523
1324,10518
1317,10511
1310,10504
1305,10496
1300,10488
1296,10479
1292,10470
1290,10461
1289,10451
1288,10442
1288,10117
1289,10107
1290,10098
1292,10088
1296,10079
1300,10070
1305,10062
1310,10054
1317,10047
1324,10041
1332,10035
1340,10030
1349,10026
1358,10023
1367,10020
1377,10019
1387,10018
1702,10018
1711,10019
" /> 
<polyline style="fill-rule:evenodd;"
points="1711,10777
1721,10778
1730,10781
1739,10784
1748,10788
1756,10793
1764,10799
1771,10805
1778,10812
1783,10820
1788,10828
1792,10837
1796,10846
1798,10855
1799,10865
1800,10875
1800,11200
1799,11209
1798,11219
1796,11228
1792,11237
1788,11246
1783,11254
1778,11262
1771,11269
1764,11276
1756,11281
1748,11286
1739,11290
1730,11294
1721,11296
1711,11297
1702,11298
1387,11298
1377,11297
1367,11296
1358,11294
1349,11290
1340,11286
1332,11281
1324,11276
1317,11269
1310,11262
1305,11254
1300,11246
1296,11237
1292,11228
1290,11219
1289,11209
1288,11200
1288,10875
1289,10865
1290,10855
1292,10846
1296,10837
1300,10828
1305,10820
1310,10812
1317,10805
1324,10799
1332,10793
1340,10788
1349,10784
1358,10781
1367,10778
1377,10777
1387,10776
1702,10776
1711,10777
" /> 
<polyline style="fill-rule:evenodd;"
points="16711,10777
16721,10778
16730,10781
16739,10784
16748,10788
16756,10793
16764,10799
16771,10805
16778,10812
16783,10820
16788,10828
16792,10837
16796,10846
16798,10855
16799,10865
16800,10875
16800,11200
16799,11209
16798,11219
16796,11228
16792,11237
16788,11246
16783,11254
16778,11262
16771,11269
16764,11276
16756,11281
16748,11286
16739,11290
16730,11294
16721,11296
16711,11297
16702,11298
16387,11298
16377,11297
16367,11296
16358,11294
16349,11290
16340,11286
16332,11281
16324,11276
16317,11269
16310,11262
16305,11254
16300,11246
16296,11237
16292,11228
16290,11219
16289,11209
16288,11200
16288,10875
16289,10865
16290,10855
16292,10846
16296,10837
16300,10828
16305,10820
16310,10812
16317,10805
16324,10799
16332,10793
16340,10788
16349,10784
16358,10781
16367,10778
16377,10777
16387,10776
16702,10776
16711,10777
" /> 
<polyline style="fill-rule:evenodd;"
points="16711,10019
16721,10020
16730,10023
16739,10026
16748,10030
16756,10035
16764,10041
16771,10047
16778,10054
16783,10062
16788,10070
16792,10079
16796,10088
16798,10098
16799,10107
16800,10117
16800,10442
16799,10451
16798,10461
16796,10470
16792,10479
16788,10488
16783,10496
16778,10504
16771,10511
16764,10518
16756,10523
16748,10528
16739,10533
16730,10536
16721,10538
16711,10540
16702,10540
16387,10540
16377,10540
16367,10538
16358,10536
16349,10533
16340,10528
16332,10523
16324,10518
16317,10511
16310,10504
16305,10496
16300,10488
16296,10479
16292,10470
16290,10461
16289,10451
16288,10442
16288,10117
16289,10107
16290,10098
16292,10088
16296,10079
16300,10070
16305,10062
16310,10054
16317,10047
16324,10041
16332,10035
16340,10030
16349,10026
16358,10023
16367,10020
16377,10019
16387,10018
16702,10018
16711,10019
" /> 
<polyline style="fill-rule:evenodd;"
points="16611,15419
16621,15420
16630,15423
16639,15426
16648,15430
16656,15435
16664,15441
16671,15447
16678,15454
16683,15462
16688,15470
16692,15479
16696,15488
16698,15498
16699,15507
16700,15517
16700,15842
16699,15851
16698,15861
16696,15870
16692,15879
16688,15888
16683,15896
16678,15904
16671,15911
16664,15918
16656,15923
16648,15928
16639,15933
16630,15936
16621,15938
16611,15940
16602,15940
16287,15940
16277,15940
16267,15938
16258,15936
16249,15933
16240,15928
16232,15923
16224,15918
16217,15911
16210,15904
16205,15896
16200,15888
16196,15879
16192,15870
16190,15861
16189,15851
16188,15842
16188,15517
16189,15507
16190,15498
16192,15488
16196,15479
16200,15470
16205,15462
16210,15454
16217,15447
16224,15441
16232,15435
16240,15430
16249,15426
16258,15423
16267,15420
16277,15419
16287,15418
16602,15418
16611,15419
" /> 
<polyline style="fill-rule:evenodd;"
points="16611,16177
16621,16178
16630,16181
16639,16184
16648,16188
16656,16193
16664,16199
16671,16205
16678,16212
16683,16220
16688,16228
16692,16237
16696,16246
16698,16255
16699,16265
16700,16275
16700,16600
16699,16609
16698,16619
16696,16628
16692,16637
16688,16646
16683,16654
16678,16662
16671,16669
16664,16676
16656,16681
16648,16686
16639,16690
16630,16694
16621,16696
16611,16697
16602,16698
16287,16698
16277,16697
16267,16696
16258,16694
16249,16690
16240,16686
16232,16681
16224,16676
16217,16669
16210,16662
16205,16654
16200,16646
16196,16637
16192,16628
16190,16619
16189,16609
16188,16600
16188,16275
16189,16265
16190,16255
16192,16246
16196,16237
16200,16228
16205,16220
16210,16212
16217,16205
16224,16199
16232,16193
16240,16188
16249,16184
16258,16181
16267,16178
16277,16177
16287,16176
16602,16176
16611,16177
" /> 
<polyline style="fill-rule:evenodd;"
points="15736,3914
15745,3916
15755,3918
15764,3921
15773,3925
15781,3930
15789,3936
15796,3943
15802,3950
15808,3957
15813,3966
15817,3974
15820,3984
15823,3993
15824,4002
15825,4012
15825,4504
15824,4514
15823,4523
15820,4533
15817,4542
15813,4551
15808,4559
15802,4567
15796,4574
15789,4580
15781,4586
15773,4591
15764,4595
15755,4598
15745,4601
15736,4602
15726,4603
15362,4603
15352,4602
15343,4601
15333,4598
15324,4595
15316,4591
15307,4586
15300,4580
15292,4574
15286,4567
15280,4559
15275,4551
15271,4542
15268,4533
15265,4523
15264,4514
15264,4504
15264,4012
15264,4002
15265,3993
15268,3984
15271,3974
15275,3966
15280,3957
15286,3950
15292,3943
15300,3936
15307,3930
15316,3925
15324,3921
15333,3918
15343,3916
15352,3914
15362,3914
15726,3914
15736,3914
" /> 
<polyline style="fill-rule:evenodd;"
points="14565,3914
14574,3916
14583,3918
14593,3921
14601,3925
14610,3930
14617,3936
14624,3943
14631,3950
14637,3957
14642,3966
14646,3974
14649,3984
14651,3993
14653,4002
14653,4012
14653,4504
14653,4514
14651,4523
14649,4533
14646,4542
14642,4551
14637,4559
14631,4567
14624,4574
14617,4580
14610,4586
14601,4591
14593,4595
14583,4598
14574,4601
14565,4602
14555,4603
14191,4603
14181,4602
14171,4601
14162,4598
14153,4595
14144,4591
14136,4586
14128,4580
14121,4574
14115,4567
14109,4559
14104,4551
14100,4542
14096,4533
14094,4523
14093,4514
14092,4504
14092,4012
14093,4002
14094,3993
14096,3984
14100,3974
14104,3966
14109,3957
14115,3950
14121,3943
14128,3936
14136,3930
14144,3925
14153,3921
14162,3918
14171,3916
14181,3914
14191,3914
14555,3914
14565,3914
" /> 
<circle cx="5529.53" cy="9040.66" r="157.48" /> 
</g>
<g style="fill:#000000; fill-opacity:1.0; 
stroke:#000000; stroke-width:39.3701; stroke-opacity:1; 
stroke-linecap:round; stroke-linejoin:round;">
</g>
<g style="fill:#000000; fill-opacity:1.0; 
stroke:#000000; stroke-width:0; stroke-opacity:1; 
stroke-linecap:round; stroke-linejoin:round;">
<circle cx="5529.53" cy="10159.7" r="157.48" /> 
</g>
<g style="fill:#000000; fill-opacity:1.0; 
stroke:#000000; stroke-width:39.3701; stroke-opacity:1; 
stroke-linecap:round; stroke-linejoin:round;">
</g>
<g style="fill:#000000; fill-opacity:1.0; 
stroke:#000000; stroke-width:0; stroke-opacity:1; 
stroke-linecap:round; stroke-linejoin:round;">
<circle cx="6529.53" cy="16437.7" r="157.48" /> 
</g>
<g style="fill:#000000; fill-opacity:1.0; 
stroke:#000000; stroke-width:39.3701; stroke-opacity:1; 
stroke-linecap:round; stroke-linejoin:round;">
</g>
<g style="fill:#000000; fill-opacity:1.0; 
stroke:#000000; stroke-width:0; stroke-opacity:1; 
stroke-linecap:round; stroke-linejoin:round;">
<circle cx="6529.53" cy="8488.66" r="157.48" /> 
</g>
<g style="fill:#000000; fill-opacity:1.0; 
stroke:#000000; stroke-width:39.3701; stroke-opacity:1; 
stroke-linecap:round; stroke-linejoin:round;">
</g>
<g style="fill:#000000; fill-opacity:1.0; 
stroke:#000000; stroke-width:0; stroke-opacity:1; 
stroke-linecap:round; stroke-linejoin:round;">
<circle cx="6544.53" cy="11658.7" r="157.48" /> 
</g>
<g style="fill:#000000; fill-opacity:1.0; 
stroke:#000000; stroke-width:39.3701; stroke-opacity:1; 
stroke-linecap:round; stroke-linejoin:round;">
</g>
<g style="fill:#000000; fill-opacity:1.0; 
stroke:#000000; stroke-width:0; stroke-opacity:1; 
stroke-linecap:round; stroke-linejoin:round;">
<circle cx="7529.53" cy="9558.66" r="157.48" /> 
</g>
<g style="fill:#000000; fill-opacity:1.0; 
stroke:#000000; stroke-width:39.3701; stroke-opacity:1; 
stroke-linecap:round; stroke-linejoin:round;">
</g>
<g style="fill:#000000; fill-opacity:1.0; 
stroke:#000000; stroke-width:314.961; stroke-opacity:1; 
stroke-linecap:round; stroke-linejoin:round;">
</g>
<g style="fill:#000000; fill-opacity:0.0; 
stroke:#000000; stroke-width:314.961; stroke-opacity:1; 
stroke-linecap:round; stroke-linejoin:round;">
<path d="M8259 9040
L5529 9040
" />
<path d="M8635 8664
L8259 9040
" />
<path d="M8635 7058
L8635 8664
" />
</g>
<g style="fill:#000000; fill-opacity:0.0; 
stroke:#000000; stroke-width:275.591; stroke-opacity:1; 
stroke-linecap:round; stroke-linejoin:round;">
<path d="M8635 7058
L8635 6452
" />
<path d="M10604 6452
L10604 7698
" />
</g>
<g style="fill:#000000; fill-opacity:0.0; 
stroke:#000000; stroke-width:314.961; stroke-opacity:1; 
stroke-linecap:round; stroke-linejoin:round;">
<path d="M10604 7698
L10604 9498
" />
<path d="M10604 9498
L9943 10159
" />
<path d="M9943 10159
L5529 10159
" />
</g>
<g style="fill:#000000; fill-opacity:0.0; 
stroke:#000000; stroke-width:393.701; stroke-opacity:1; 
stroke-linecap:round; stroke-linejoin:round;">
<path d="M1629 16468
L16429 16468
" />
</g>
<g style="fill:#000000; fill-opacity:0.0; 
stroke:#000000; stroke-width:314.961; stroke-opacity:1; 
stroke-linecap:round; stroke-linejoin:round;">
<path d="M3529 4348
L3529 4116
" />
<path d="M3529 4116
L3999 3646
" />
<path d="M5827 3646
L6529 4348
" />
<path d="M3999 3646
L5827 3646
" />
</g>
<g style="fill:#000000; fill-opacity:0.0; 
stroke:#000000; stroke-width:275.591; stroke-opacity:1; 
stroke-linecap:round; stroke-linejoin:round;">
<path d="M8242 6452
L8242 7556
" />
</g>
<g style="fill:#000000; fill-opacity:0.0; 
stroke:#000000; stroke-width:314.961; stroke-opacity:1; 
stroke-linecap:round; stroke-linejoin:round;">
<path d="M8242 7556
L8242 7961
" />
<path d="M8242 7961
L7714 8488
" />
<path d="M7714 8488
L6529 8488
" />
</g>
<g style="fill:#000000; fill-opacity:0.0; 
stroke:#000000; stroke-width:393.701; stroke-opacity:1; 
stroke-linecap:round; stroke-linejoin:round;">
<path d="M15839 11658
L16429 11068
" />
<path d="M3113 11658
L15839 11658
" />
<path d="M1629 11068
L2523 11068
" />
<path d="M2523 11068
L3113 11658
" />
</g>
<g style="fill:#000000; fill-opacity:0.0; 
stroke:#000000; stroke-width:314.961; stroke-opacity:1; 
stroke-linecap:round; stroke-linejoin:round;">
<path d="M10210 5547
L10244 5513
" />
<path d="M11529 4905
L11529 4348
" />
<path d="M10921 5513
L11529 4905
" />
<path d="M10244 5513
L10921 5513
" />
</g>
<g style="fill:#000000; fill-opacity:0.0; 
stroke:#000000; stroke-width:275.591; stroke-opacity:1; 
stroke-linecap:round; stroke-linejoin:round;">
<path d="M10210 5547
L10210 6452
" />
</g>
<g style="fill:#000000; fill-opacity:0.0; 
stroke:#000000; stroke-width:314.961; stroke-opacity:1; 
stroke-linecap:round; stroke-linejoin:round;">
<path d="M9529 4348
L9423 4454
" />
<path d="M9423 4454
L9423 5558
" />
</g>
<g style="fill:#000000; fill-opacity:0.0; 
stroke:#000000; stroke-width:275.591; stroke-opacity:1; 
stroke-linecap:round; stroke-linejoin:round;">
<path d="M9423 5558
L9423 6452
" />
</g>
<g style="fill:#000000; fill-opacity:0.0; 
stroke:#000000; stroke-width:314.961; stroke-opacity:1; 
stroke-linecap:round; stroke-linejoin:round;">
<path d="M8925 9558
L7529 9558
" />
<path d="M9029 9454
L8925 9558
" />
</g>
<g style="fill:#000000; fill-opacity:0.0; 
stroke:#000000; stroke-width:275.591; stroke-opacity:1; 
stroke-linecap:round; stroke-linejoin:round;">
<path d="M9029 7258
L9029 6452
" />
</g>
<g style="fill:#000000; fill-opacity:0.0; 
stroke:#000000; stroke-width:314.961; stroke-opacity:1; 
stroke-linecap:round; stroke-linejoin:round;">
<path d="M9029 7258
L9029 9454
" />
<path d="M9029 7058
L9029 7258
" />
</g>
<g style="fill:#000000; fill-opacity:0.0; 
stroke:#000000; stroke-width:275.591; stroke-opacity:1; 
stroke-linecap:round; stroke-linejoin:round;">
<path d="M9029 7058
L9029 6452
" />
</g>
<g style="fill:#000000; fill-opacity:0.0; 
stroke:#000000; stroke-width:314.961; stroke-opacity:1; 
stroke-linecap:round; stroke-linejoin:round;">
<path d="M8265 5080
L8267 5082
" />
<path d="M8354 5080
L8265 5080
" />
<path d="M8529 4905
L8354 5080
" />
<path d="M8529 4348
L8529 4905
" />
</g>
<g style="fill:#000000; fill-opacity:0.0; 
stroke:#000000; stroke-width:275.591; stroke-opacity:1; 
stroke-linecap:round; stroke-linejoin:round;">
<path d="M7960 5080
L8265 5080
" />
<path d="M7454 5586
L7960 5080
" />
<path d="M7454 6452
L7454 5586
" />
</g>
<g style="fill:#000000; fill-opacity:0.0; 
stroke:#000000; stroke-width:314.961; stroke-opacity:1; 
stroke-linecap:round; stroke-linejoin:round;">
<path d="M10529 4905
L10401 5033
" />
<path d="M10529 4348
L10529 4905
" />
<path d="M10401 5033
L10153 5033
" />
<path d="M10153 5033
L9816 5370
" />
<path d="M9816 5370
L9816 5558
" />
</g>
<g style="fill:#000000; fill-opacity:0.0; 
stroke:#000000; stroke-width:275.591; stroke-opacity:1; 
stroke-linecap:round; stroke-linejoin:round;">
<path d="M9816 5693
L9816 6452
" />
<path d="M9816 5558
L9816 5693
" />
</g>
<g style="fill:#000000; fill-opacity:0.0; 
stroke:#000000; stroke-width:314.961; stroke-opacity:1; 
stroke-linecap:round; stroke-linejoin:round;">
<path d="M7411 7842
L7848 7405
" />
<path d="M2529 4348
L2529 5163
" />
<path d="M2551 5185
L2551 6697
" />
<path d="M3696 7842
L7411 7842
" />
<path d="M2529 5163
L2551 5185
" />
<path d="M2551 6697
L3696 7842
" />
<path d="M7848 7405
L7848 7058
" />
</g>
<g style="fill:#000000; fill-opacity:0.0; 
stroke:#000000; stroke-width:275.591; stroke-opacity:1; 
stroke-linecap:round; stroke-linejoin:round;">
<path d="M7848 7058
L7848 6452
" />
</g>
<g style="fill:#000000; fill-opacity:0.0; 
stroke:#000000; stroke-width:393.701; stroke-opacity:1; 
stroke-linecap:round; stroke-linejoin:round;">
<path d="M12529 4348
L14529 4348
" />
<path d="M16251 15566
L16333 15484
" />
<path d="M1733 15566
L16251 15566
" />
<path d="M16337 15488
L16333 15484
" />
<path d="M17279 15488
L16337 15488
" />
<path d="M15529 6743
L16400 7614
" />
<path d="M15529 4348
L15529 6743
" />
<path d="M16400 7614
L16500 7614
" />
<path d="M16500 7614
L17671 8785
" />
<path d="M17671 15096
L17279 15488
" />
</g>
<g style="fill:#000000; fill-opacity:0.0; 
stroke:#000000; stroke-width:314.961; stroke-opacity:1; 
stroke-linecap:round; stroke-linejoin:round;">
<path d="M16322 10161
L15041 10161
" />
<path d="M15041 10161
L14144 11058
" />
<path d="M14144 11058
L12544 11058
" />
<path d="M3262 10176
L1735 10176
" />
<path d="M4144 11058
L3262 10176
" />
<path d="M12544 11058
L4144 11058
" />
</g>
<g style="fill:#000000; fill-opacity:0.0; 
stroke:#000000; stroke-width:393.701; stroke-opacity:1; 
stroke-linecap:round; stroke-linejoin:round;">
<path d="M17468 10161
L17671 9958
" />
<path d="M16322 10161
L17468 10161
" />
<path d="M17671 8785
L17671 9958
" />
<path d="M17671 9958
L17671 15096
" />
</g>
<g style="fill:#FFFFFF; fill-opacity:0.0; 
stroke:#FFFFFF; stroke-width:393.701; stroke-opacity:1; 
stroke-linecap:round; stroke-linejoin:round;">
</g>
<g style="fill:#FFFFFF; fill-opacity:1.0; 
stroke:#FFFFFF; stroke-width:0; stroke-opacity:1; 
stroke-linecap:round; stroke-linejoin:round;">
<circle cx="5529.53" cy="9040.66" r="78.7402" /> 
</g>
<g style="fill:#FFFFFF; fill-opacity:1.0; 
stroke:#FFFFFF; stroke-width:39.3701; stroke-opacity:1; 
stroke-linecap:round; stroke-linejoin:round;">
</g>
<g style="fill:#FFFFFF; fill-opacity:1.0; 
stroke:#FFFFFF; stroke-width:0; stroke-opacity:1; 
stroke-linecap:round; stroke-linejoin:round;">
<circle cx="5529.53" cy="10159.7" r="78.7402" /> 
</g>
<g style="fill:#FFFFFF; fill-opacity:1.0; 
stroke:#FFFFFF; stroke-width:39.3701; stroke-opacity:1; 
stroke-linecap:round; stroke-linejoin:round;">
</g>
<g style="fill:#FFFFFF; fill-opacity:1.0; 
stroke:#FFFFFF; stroke-width:0; stroke-opacity:1; 
stroke-linecap:round; stroke-linejoin:round;">
<circle cx="6529.53" cy="16437.7" r="78.7402" /> 
</g>
<g style="fill:#FFFFFF; fill-opacity:1.0; 
stroke:#FFFFFF; stroke-width:39.3701; stroke-opacity:1; 
stroke-linecap:round; stroke-linejoin:round;">
</g>
<g style="fill:#FFFFFF; fill-opacity:1.0; 
stroke:#FFFFFF; stroke-width:0; stroke-opacity:1; 
stroke-linecap:round; stroke-linejoin:round;">
<circle cx="6529.53" cy="8488.66" r="78.7402" /> 
</g>
<g style="fill:#FFFFFF; fill-opacity:1.0; 
stroke:#FFFFFF; stroke-width:39.3701; stroke-opacity:1; 
stroke-linecap:round; stroke-linejoin:round;">
</g>
<g style="fill:#FFFFFF; fill-opacity:1.0; 
stroke:#FFFFFF; stroke-width:0; stroke-opacity:1; 
stroke-linecap:round; stroke-linejoin:round;">
<circle cx="6544.53" cy="11658.7" r="78.7402" /> 
</g>
<g style="fill:#FFFFFF; fill-opacity:1.0; 
stroke:#FFFFFF; stroke-width:39.3701; stroke-opacity:1; 
stroke-linecap:round; stroke-linejoin:round;">
</g>
<g style="fill:#FFFFFF; fill-opacity:1.0; 
stroke:#FFFFFF; stroke-width:0; stroke-opacity:1; 
stroke-linecap:round; stroke-linejoin:round;">
<circle cx="7529.53" cy="9558.66" r="78.7402" /> 
</g>
<g style="fill:#FFFFFF; fill-opacity:1.0; 
stroke:#FFFFFF; stroke-width:39.3701; stroke-opacity:1; 
stroke-linecap:round; stroke-linejoin:round;">
</g>
<g style="fill:#FFFFFF; fill-opacity:1.0; 
stroke:#FFFFFF; stroke-width:0; stroke-opacity:1; 
stroke-linecap:round; stroke-linejoin:round;">
<circle cx="9529.53" cy="20348.7" r="150" /> 
</g>
<g style="fill:#FFFFFF; fill-opacity:1.0; 
stroke:#FFFFFF; stroke-width:39.3701; stroke-opacity:1; 
stroke-linecap:round; stroke-linejoin:round;">
</g>
<g style="fill:#FFFFFF; fill-opacity:1.0; 
stroke:#FFFFFF; stroke-width:0; stroke-opacity:1; 
stroke-linecap:round; stroke-linejoin:round;">
<circle cx="5529.53" cy="20348.7" r="150" /> 
</g>
<g style="fill:#FFFFFF; fill-opacity:1.0; 
stroke:#FFFFFF; stroke-width:39.3701; stroke-opacity:1; 
stroke-linecap:round; stroke-linejoin:round;">
</g>
<g style="fill:#FFFFFF; fill-opacity:1.0; 
stroke:#FFFFFF; stroke-width:0; stroke-opacity:1; 
stroke-linecap:round; stroke-linejoin:round;">
<circle cx="6529.53" cy="20348.7" r="150" /> 
</g>
<g style="fill:#FFFFFF; fill-opacity:1.0; 
stroke:#FFFFFF; stroke-width:39.3701; stroke-opacity:1; 
stroke-linecap:round; stroke-linejoin:round;">
</g>
<g style="fill:#FFFFFF; fill-opacity:1.0; 
stroke:#FFFFFF; stroke-width:0; stroke-opacity:1; 
stroke-linecap:round; stroke-linejoin:round;">
<circle cx="7529.53" cy="20348.7" r="150" /> 
</g>
<g style="fill:#FFFFFF; fill-opacity:1.0; 
stroke:#FFFFFF; stroke-width:39.3701; stroke-opacity:1; 
stroke-linecap:round; stroke-linejoin:round;">
</g>
<g style="fill:#FFFFFF; fill-opacity:1.0; 
stroke:#FFFFFF; stroke-width:0; stroke-opacity:1; 
stroke-linecap:round; stroke-linejoin:round;">
<circle cx="8529.53" cy="20348.7" r="150" /> 
</g>
<g style="fill:#FFFFFF; fill-opacity:1.0; 
stroke:#FFFFFF; stroke-width:39.3701; stroke-opacity:1; 
stroke-linecap:round; stroke-linejoin:round;">
</g>
<g style="fill:#FFFFFF; fill-opacity:1.0; 
stroke:#FFFFFF; stroke-width:0; stroke-opacity:1; 
stroke-linecap:round; stroke-linejoin:round;">
<circle cx="12529.5" cy="20348.7" r="150" /> 
</g>
<g style="fill:#FFFFFF; fill-opacity:1.0; 
stroke:#FFFFFF; stroke-width:39.3701; stroke-opacity:1; 
stroke-linecap:round; stroke-linejoin:round;">
</g>
<g style="fill:#FFFFFF; fill-opacity:1.0; 
stroke:#FFFFFF; stroke-width:0; stroke-opacity:1; 
stroke-linecap:round; stroke-linejoin:round;">
<circle cx="10529.5" cy="20348.7" r="150" /> 
</g>
<g style="fill:#FFFFFF; fill-opacity:1.0; 
stroke:#FFFFFF; stroke-width:39.3701; stroke-opacity:1; 
stroke-linecap:round; stroke-linejoin:round;">
</g>
<g style="fill:#FFFFFF; fill-opacity:1.0; 
stroke:#FFFFFF; stroke-width:0; stroke-opacity:1; 
stroke-linecap:round; stroke-linejoin:round;">
<circle cx="11529.5" cy="20348.7" r="150" /> 
</g>
<g style="fill:#FFFFFF; fill-opacity:1.0; 
stroke:#FFFFFF; stroke-width:39.3701; stroke-opacity:1; 
stroke-linecap:round; stroke-linejoin:round;">
</g>
<g style="fill:#FFFFFF; fill-opacity:1.0; 
stroke:#FFFFFF; stroke-width:0; stroke-opacity:1; 
stroke-linecap:round; stroke-linejoin:round;">
<circle cx="5529.53" cy="4348.66" r="150" /> 
</g>
<g style="fill:#FFFFFF; fill-opacity:1.0; 
stroke:#FFFFFF; stroke-width:39.3701; stroke-opacity:1; 
stroke-linecap:round; stroke-linejoin:round;">
</g>
<g style="fill:#FFFFFF; fill-opacity:1.0; 
stroke:#FFFFFF; stroke-width:0; stroke-opacity:1; 
stroke-linecap:round; stroke-linejoin:round;">
<circle cx="6529.53" cy="4348.66" r="150" /> 
</g>
<g style="fill:#FFFFFF; fill-opacity:1.0; 
stroke:#FFFFFF; stroke-width:39.3701; stroke-opacity:1; 
stroke-linecap:round; stroke-linejoin:round;">
</g>
<g style="fill:#FFFFFF; fill-opacity:1.0; 
stroke:#FFFFFF; stroke-width:0; stroke-opacity:1; 
stroke-linecap:round; stroke-linejoin:round;">
<circle cx="7529.53" cy="4348.66" r="150" /> 
</g>
<g style="fill:#FFFFFF; fill-opacity:1.0; 
stroke:#FFFFFF; stroke-width:39.3701; stroke-opacity:1; 
stroke-linecap:round; stroke-linejoin:round;">
</g>
<g style="fill:#FFFFFF; fill-opacity:1.0; 
stroke:#FFFFFF; stroke-width:0; stroke-opacity:1; 
stroke-linecap:round; stroke-linejoin:round;">
<circle cx="8529.53" cy="4348.66" r="150" /> 
</g>
<g style="fill:#FFFFFF; fill-opacity:1.0; 
stroke:#FFFFFF; stroke-width:39.3701; stroke-opacity:1; 
stroke-linecap:round; stroke-linejoin:round;">
</g>
<g style="fill:#FFFFFF; fill-opacity:1.0; 
stroke:#FFFFFF; stroke-width:0; stroke-opacity:1; 
stroke-linecap:round; stroke-linejoin:round;">
<circle cx="12529.5" cy="4348.66" r="150" /> 
</g>
<g style="fill:#FFFFFF; fill-opacity:1.0; 
stroke:#FFFFFF; stroke-width:39.3701; stroke-opacity:1; 
stroke-linecap:round; stroke-linejoin:round;">
</g>
<g style="fill:#FFFFFF; fill-opacity:1.0; 
stroke:#FFFFFF; stroke-width:0; stroke-opacity:1; 
stroke-linecap:round; stroke-linejoin:round;">
<circle cx="11529.5" cy="4348.66" r="150" /> 
</g>
<g style="fill:#FFFFFF; fill-opacity:1.0; 
stroke:#FFFFFF; stroke-width:39.3701; stroke-opacity:1; 
stroke-linecap:round; stroke-linejoin:round;">
</g>
<g style="fill:#FFFFFF; fill-opacity:1.0; 
stroke:#FFFFFF; stroke-width:0; stroke-opacity:1; 
stroke-linecap:round; stroke-linejoin:round;">
<circle cx="10529.5" cy="4348.66" r="150" /> 
</g>
<g style="fill:#FFFFFF; fill-opacity:1.0; 
stroke:#FFFFFF; stroke-width:39.3701; stroke-opacity:1; 
stroke-linecap:round; stroke-linejoin:round;">
</g>
<g style="fill:#FFFFFF; fill-opacity:1.0; 
stroke:#FFFFFF; stroke-width:0; stroke-opacity:1; 
stroke-linecap:round; stroke-linejoin:round;">
<circle cx="9529.53" cy="4348.66" r="150" /> 
</g>
<g style="fill:#FFFFFF; fill-opacity:1.0; 
stroke:#FFFFFF; stroke-width:39.3701; stroke-opacity:1; 
stroke-linecap:round; stroke-linejoin:round;">
</g>
<g style="fill:#FFFFFF; fill-opacity:1.0; 
stroke:#FFFFFF; stroke-width:0; stroke-opacity:1; 
stroke-linecap:round; stroke-linejoin:round;">
<circle cx="17002" cy="6157.64" r="295.275" /> 
</g>
<g style="fill:#FFFFFF; fill-opacity:1.0; 
stroke:#FFFFFF; stroke-width:39.3701; stroke-opacity:1; 
stroke-linecap:round; stroke-linejoin:round;">
</g>
<g style="fill:#FFFFFF; fill-opacity:1.0; 
stroke:#FFFFFF; stroke-width:0; stroke-opacity:1; 
stroke-linecap:round; stroke-linejoin:round;">
<circle cx="17002" cy="6945.04" r="295.275" /> 
</g>
<g style="fill:#FFFFFF; fill-opacity:1.0; 
stroke:#FFFFFF; stroke-width:39.3701; stroke-opacity:1; 
stroke-linecap:round; stroke-linejoin:round;">
</g>
<g style="fill:#FFFFFF; fill-opacity:1.0; 
stroke:#FFFFFF; stroke-width:0; stroke-opacity:1; 
stroke-linecap:round; stroke-linejoin:round;">
<circle cx="17002" cy="5960.79" r="295.275" /> 
</g>
<g style="fill:#FFFFFF; fill-opacity:1.0; 
stroke:#FFFFFF; stroke-width:39.3701; stroke-opacity:1; 
stroke-linecap:round; stroke-linejoin:round;">
</g>
<g style="fill:#FFFFFF; fill-opacity:1.0; 
stroke:#FFFFFF; stroke-width:0; stroke-opacity:1; 
stroke-linecap:round; stroke-linejoin:round;">
<circle cx="1057.09" cy="6452.91" r="295.276" /> 
</g>
<g style="fill:#FFFFFF; fill-opacity:1.0; 
stroke:#FFFFFF; stroke-width:39.3701; stroke-opacity:1; 
stroke-linecap:round; stroke-linejoin:round;">
</g>
<g style="fill:#FFFFFF; fill-opacity:1.0; 
stroke:#FFFFFF; stroke-width:0; stroke-opacity:1; 
stroke-linecap:round; stroke-linejoin:round;">
<circle cx="17002" cy="6452.91" r="295.276" /> 
</g>
<g style="fill:#FFFFFF; fill-opacity:1.0; 
stroke:#FFFFFF; stroke-width:39.3701; stroke-opacity:1; 
stroke-linecap:round; stroke-linejoin:round;">
</g>
<g style="fill:#FFFFFF; fill-opacity:1.0; 
stroke:#FFFFFF; stroke-width:0; stroke-opacity:1; 
stroke-linecap:round; stroke-linejoin:round;">
<circle cx="1057.09" cy="14326.9" r="295.276" /> 
</g>
<g style="fill:#FFFFFF; fill-opacity:1.0; 
stroke:#FFFFFF; stroke-width:39.3701; stroke-opacity:1; 
stroke-linecap:round; stroke-linejoin:round;">
</g>
<g style="fill:#FFFFFF; fill-opacity:1.0; 
stroke:#FFFFFF; stroke-width:0; stroke-opacity:1; 
stroke-linecap:round; stroke-linejoin:round;">
<circle cx="17002" cy="14326.9" r="295.276" /> 
</g>
<g style="fill:#FFFFFF; fill-opacity:1.0; 
stroke:#FFFFFF; stroke-width:39.3701; stroke-opacity:1; 
stroke-linecap:round; stroke-linejoin:round;">
</g>
<g style="fill:#FFFFFF; fill-opacity:1.0; 
stroke:#FFFFFF; stroke-width:0; stroke-opacity:1; 
stroke-linecap:round; stroke-linejoin:round;">
<circle cx="17002" cy="6649.76" r="295.275" /> 
</g>
<g style="fill:#FFFFFF; fill-opacity:1.0; 
stroke:#FFFFFF; stroke-width:39.3701; stroke-opacity:1; 
stroke-linecap:round; stroke-linejoin:round;">
</g>
<g style="fill:#FFFFFF; fill-opacity:1.0; 
stroke:#FFFFFF; stroke-width:0; stroke-opacity:1; 
stroke-linecap:round; stroke-linejoin:round;">
<circle cx="17002" cy="13834.8" r="295.275" /> 
</g>
<g style="fill:#FFFFFF; fill-opacity:1.0; 
stroke:#FFFFFF; stroke-width:39.3701; stroke-opacity:1; 
stroke-linecap:round; stroke-linejoin:round;">
</g>
<g style="fill:#FFFFFF; fill-opacity:1.0; 
stroke:#FFFFFF; stroke-width:0; stroke-opacity:1; 
stroke-linecap:round; stroke-linejoin:round;">
<circle cx="17002" cy="14819.1" r="295.275" /> 
</g>
<g style="fill:#FFFFFF; fill-opacity:1.0; 
stroke:#FFFFFF; stroke-width:39.3701; stroke-opacity:1; 
stroke-linecap:round; stroke-linejoin:round;">
</g>
<g style="fill:#FFFFFF; fill-opacity:1.0; 
stroke:#FFFFFF; stroke-width:0; stroke-opacity:1; 
stroke-linecap:round; stroke-linejoin:round;">
<circle cx="1057.09" cy="6157.64" r="295.275" /> 
</g>
<g style="fill:#FFFFFF; fill-opacity:1.0; 
stroke:#FFFFFF; stroke-width:39.3701; stroke-opacity:1; 
stroke-linecap:round; stroke-linejoin:round;">
</g>
<g style="fill:#FFFFFF; fill-opacity:1.0; 
stroke:#FFFFFF; stroke-width:0; stroke-opacity:1; 
stroke-linecap:round; stroke-linejoin:round;">
<circle cx="1057.09" cy="5960.79" r="295.275" /> 
</g>
<g style="fill:#FFFFFF; fill-opacity:1.0; 
stroke:#FFFFFF; stroke-width:39.3701; stroke-opacity:1; 
stroke-linecap:round; stroke-linejoin:round;">
</g>
<g style="fill:#FFFFFF; fill-opacity:1.0; 
stroke:#FFFFFF; stroke-width:0; stroke-opacity:1; 
stroke-linecap:round; stroke-linejoin:round;">
<circle cx="1057.09" cy="6748.19" r="295.275" /> 
</g>
<g style="fill:#FFFFFF; fill-opacity:1.0; 
stroke:#FFFFFF; stroke-width:39.3701; stroke-opacity:1; 
stroke-linecap:round; stroke-linejoin:round;">
</g>
<g style="fill:#FFFFFF; fill-opacity:1.0; 
stroke:#FFFFFF; stroke-width:0; stroke-opacity:1; 
stroke-linecap:round; stroke-linejoin:round;">
<circle cx="1057.09" cy="6945.04" r="295.275" /> 
</g>
<g style="fill:#FFFFFF; fill-opacity:1.0; 
stroke:#FFFFFF; stroke-width:39.3701; stroke-opacity:1; 
stroke-linecap:round; stroke-linejoin:round;">
</g>
<g style="fill:#FFFFFF; fill-opacity:1.0; 
stroke:#FFFFFF; stroke-width:0; stroke-opacity:1; 
stroke-linecap:round; stroke-linejoin:round;">
<circle cx="1057.09" cy="13834.8" r="295.275" /> 
</g>
<g style="fill:#FFFFFF; fill-opacity:1.0; 
stroke:#FFFFFF; stroke-width:39.3701; stroke-opacity:1; 
stroke-linecap:round; stroke-linejoin:round;">
</g>
<g style="fill:#FFFFFF; fill-opacity:1.0; 
stroke:#FFFFFF; stroke-width:0; stroke-opacity:1; 
stroke-linecap:round; stroke-linejoin:round;">
<circle cx="1057.09" cy="14819.1" r="295.275" /> 
</g>
<g style="fill:#FFFFFF; fill-opacity:1.0; 
stroke:#FFFFFF; stroke-width:39.3701; stroke-opacity:1; 
stroke-linecap:round; stroke-linejoin:round;">
</g>
<g style="fill:#FFFFFF; fill-opacity:1.0; 
stroke:#FFFFFF; stroke-width:0; stroke-opacity:1; 
stroke-linecap:round; stroke-linejoin:round;">
<circle cx="1057.09" cy="14130.1" r="295.275" /> 
</g>
<g style="fill:#FFFFFF; fill-opacity:1.0; 
stroke:#FFFFFF; stroke-width:39.3701; stroke-opacity:1; 
stroke-linecap:round; stroke-linejoin:round;">
</g>
<g style="fill:#FFFFFF; fill-opacity:1.0; 
stroke:#FFFFFF; stroke-width:0; stroke-opacity:1; 
stroke-linecap:round; stroke-linejoin:round;">
<circle cx="1057.09" cy="14622.2" r="295.275" /> 
</g>
<g style="fill:#FFFFFF; fill-opacity:1.0; 
stroke:#FFFFFF; stroke-width:39.3701; stroke-opacity:1; 
stroke-linecap:round; stroke-linejoin:round;">
</g>
<g style="fill:#FFFFFF; fill-opacity:1.0; 
stroke:#FFFFFF; stroke-width:0; stroke-opacity:1; 
stroke-linecap:round; stroke-linejoin:round;">
<circle cx="17002" cy="14031.7" r="295.275" /> 
</g>
<g style="fill:#FFFFFF; fill-opacity:1.0; 
stroke:#FFFFFF; stroke-width:39.3701; stroke-opacity:1; 
stroke-linecap:round; stroke-linejoin:round;">
</g>
<g style="fill:#FFFFFF; fill-opacity:1.0; 
stroke:#FFFFFF; stroke-width:0; stroke-opacity:1; 
stroke-linecap:round; stroke-linejoin:round;">
<circle cx="17002" cy="14523.8" r="295.275" /> 
</g>
<g style="fill:#FFFFFF; fill-opacity:1.0; 
stroke:#FFFFFF; stroke-width:39.3701; stroke-opacity:1; 
stroke-linecap:round; stroke-linejoin:round;">
</g>
<g style="fill:#FFFFFF; fill-opacity:1.0; 
stroke:#FFFFFF; stroke-width:0; stroke-opacity:1; 
stroke-linecap:round; stroke-linejoin:round;">
<circle cx="1029.53" cy="4348.66" r="137.795" /> 
</g>
<g style="fill:#FFFFFF; fill-opacity:1.0; 
stroke:#FFFFFF; stroke-width:39.3701; stroke-opacity:1; 
stroke-linecap:round; stroke-linejoin:round;">
</g>
<g style="fill:#FFFFFF; fill-opacity:1.0; 
stroke:#FFFFFF; stroke-width:0; stroke-opacity:1; 
stroke-linecap:round; stroke-linejoin:round;">
<circle cx="17029.5" cy="4348.66" r="137.795" /> 
</g>
<g style="fill:#FFFFFF; fill-opacity:1.0; 
stroke:#FFFFFF; stroke-width:39.3701; stroke-opacity:1; 
stroke-linecap:round; stroke-linejoin:round;">
</g>
<g style="fill:#FFFFFF; fill-opacity:1.0; 
stroke:#FFFFFF; stroke-width:0; stroke-opacity:1; 
stroke-linecap:round; stroke-linejoin:round;">
<circle cx="17029.5" cy="20348.7" r="137.795" /> 
</g>
<g style="fill:#FFFFFF; fill-opacity:1.0; 
stroke:#FFFFFF; stroke-width:39.3701; stroke-opacity:1; 
stroke-linecap:round; stroke-linejoin:round;">
</g>
<g style="fill:#FFFFFF; fill-opacity:1.0; 
stroke:#FFFFFF; stroke-width:0; stroke-opacity:1; 
stroke-linecap:round; stroke-linejoin:round;">
<circle cx="1029.53" cy="20348.7" r="137.795" /> 
</g>
<g style="fill:#FFFFFF; fill-opacity:1.0; 
stroke:#FFFFFF; stroke-width:39.3701; stroke-opacity:1; 
stroke-linecap:round; stroke-linejoin:round;">
</g>
<g style="fill:#FFFFFF; fill-opacity:1.0; 
stroke:#FFFFFF; stroke-width:0; stroke-opacity:1; 
stroke-linecap:round; stroke-linejoin:round;">
<circle cx="2239.53" cy="7829.66" r="150" /> 
</g>
<g style="fill:#FFFFFF; fill-opacity:1.0; 
stroke:#FFFFFF; stroke-width:39.3701; stroke-opacity:1; 
stroke-linecap:round; stroke-linejoin:round;">
</g>
<g style="fill:#FFFFFF; fill-opacity:1.0; 
stroke:#FFFFFF; stroke-width:0; stroke-opacity:1; 
stroke-linecap:round; stroke-linejoin:round;">
<circle cx="15826.5" cy="18266.7" r="150" /> 
</g>
<g style="fill:#FFFFFF; fill-opacity:1.0; 
stroke:#FFFFFF; stroke-width:39.3701; stroke-opacity:1; 
stroke-linecap:round; stroke-linejoin:round;">
</g>
<g style="fill:#000000; fill-opacity:1.0; 
stroke:#000000; stroke-width:39.3701; stroke-opacity:1; 
stroke-linecap:round; stroke-linejoin:round;">
</g>
<g style="fill:#000000; fill-opacity:1.0; 
stroke:#000000; stroke-width:59.0551; stroke-opacity:1; 
stroke-linecap:round; stroke-linejoin:round;">
</g>
<g style="fill:#000000; fill-opacity:0.0; 
stroke:#000000; stroke-width:59.0551; stroke-opacity:1; 
stroke-linecap:round; stroke-linejoin:round;">
<path d="M29 21348
L18029 21348
" />
<path d="M29 3348
L29 21348
" />
<path d="M18029 3348
L29 3348
" />
<path d="M18029 21348
L18029 3348
" />
<path d="M1155 5468
L16903 5468
" />
<path d="M16903 19149
L1155 19149
" />
<path d="M2139 11374
L1155 11374
" />
<path d="M2139 9799
L2139 11374
" />
<path d="M1155 9799
L2139 9799
" />
<path d="M15919 11374
L16903 11374
" />
<path d="M15919 9799
L15919 11374
" />
<path d="M16903 9799
L15919 9799
" />
<path d="M2139 16492
L1155 16492
" />
<path d="M2139 14917
L2139 16492
" />
<path d="M1155 14917
L2139 14917
" />
<path d="M15919 16492
L16903 16492
" />
<path d="M15919 14917
L15919 16492
" />
<path d="M16903 14917
L15919 14917
" />
<path d="M16903 5468
L16903 19149
" />
<path d="M1155 5468
L1155 19149
" />
</g>
<g style="fill:#000000; fill-opacity:0.0; 
stroke:#000000; stroke-width:47.2441; stroke-opacity:1; 
stroke-linecap:round; stroke-linejoin:round;">
<path d="M3281 4716
L2807 4716
" />
<path d="M3281 4000
L2807 4000
" />
<path d="M1186 15337
L1186 16473
" />
<path d="M1902 15337
L1186 15337
" />
<path d="M1902 16473
L1902 15337
" />
<path d="M1902 11052
L1902 9916
" />
<path d="M1902 9916
L1186 9916
" />
<path d="M1186 9916
L1186 11052
" />
<path d="M16186 9916
L16186 11052
" />
<path d="M16902 9916
L16186 9916
" />
<path d="M16902 11052
L16902 9916
" />
<path d="M16802 16452
L16802 15316
" />
<path d="M16802 15316
L16086 15316
" />
<path d="M16086 15316
L16086 16452
" />
<path d="M15195 4616
L14721 4616
" />
<path d="M15195 3900
L14721 3900
" />
</g>
<g style="fill:#000000; fill-opacity:0.0; 
stroke:#000000; stroke-width:59.0551; stroke-opacity:1; 
stroke-linecap:round; stroke-linejoin:round;">
<path d="M8729 9203
L8729 9521
L8748 9559
L8767 9578
L8804 9596
L8879 9596
L8917 9578
L8935 9559
L8954 9521
L8954 9203
" />
<path d="M9348 9596
L9123 9596
" />
<path d="M9235 9596
L9235 9203
L9198 9259
L9160 9296
L9123 9315
" />
<path d="M10670 8093
L10932 7999
L10670 7906
" />
<path d="M10932 7587
L10538 7587
" />
<path d="M10913 7587
L10932 7624
L10932 7699
L10913 7737
L10895 7756
L10857 7774
L10745 7774
L10707 7756
L10688 7737
L10670 7699
L10670 7624
L10688 7587
" />
<path d="M10932 7231
L10538 7231
" />
<path d="M10913 7231
L10932 7268
L10932 7343
L10913 7381
L10895 7399
L10857 7418
L10745 7418
L10707 7399
L10688 7381
L10670 7343
L10670 7268
L10688 7231
" />
<path d="M10413 8259
L10432 8221
L10432 8146
L10413 8109
L10376 8090
L10357 8090
L10320 8109
L10301 8146
L10301 8202
L10282 8240
L10245 8259
L10226 8259
L10188 8240
L10170 8202
L10170 8146
L10188 8109
" />
<path d="M10413 7753
L10432 7790
L10432 7865
L10413 7903
L10395 7921
L10357 7940
L10245 7940
L10207 7921
L10188 7903
L10170 7865
L10170 7790
L10188 7753
" />
<path d="M10432 7528
L10413 7565
L10376 7584
L10038 7584
" />
<path d="M10432 7378
L10038 7378
" />
<path d="M10282 7340
L10432 7228
" />
<path d="M10170 7228
L10320 7378
" />
<path d="M9963 8277
L9982 8240
L9982 8165
L9963 8127
L9926 8109
L9907 8109
L9870 8127
L9851 8165
L9851 8221
L9832 8259
L9795 8277
L9776 8277
L9738 8259
L9720 8221
L9720 8165
L9738 8127
" />
<path d="M9982 7771
L9588 7771
" />
<path d="M9963 7771
L9982 7809
L9982 7884
L9963 7921
L9945 7940
L9907 7959
L9795 7959
L9757 7940
L9738 7921
L9720 7884
L9720 7809
L9738 7771
" />
<path d="M9982 7584
L9720 7584
" />
<path d="M9588 7584
L9607 7603
L9626 7584
L9607 7565
L9588 7584
L9626 7584
" />
<path d="M9720 7396
L9982 7396
" />
<path d="M9757 7396
L9738 7378
L9720 7340
L9720 7284
L9738 7246
L9776 7228
L9982 7228
" />
<path d="M9607 7959
L9213 7959
" />
<path d="M9588 7959
L9607 7996
L9607 8071
L9588 8109
L9570 8127
L9532 8146
L9420 8146
L9382 8127
L9363 8109
L9345 8071
L9345 7996
L9363 7959
" />
<path d="M9195 7490
L9701 7828
" />
<path d="M9588 7190
L9607 7228
L9607 7303
L9588 7340
L9570 7359
L9532 7378
L9420 7378
L9382 7359
L9363 7340
L9345 7303
L9345 7228
L9363 7190
" />
<path d="M9188 8090
L9207 8052
L9207 7977
L9188 7940
L9151 7921
L9132 7921
L9095 7940
L9076 7977
L9076 8034
L9057 8071
L9020 8090
L9001 8090
L8963 8071
L8945 8034
L8945 7977
L8963 7940
" />
<path d="M9188 7584
L9207 7621
L9207 7696
L9188 7734
L9170 7753
L9132 7771
L9020 7771
L8982 7753
L8963 7734
L8945 7696
L8945 7621
L8963 7584
" />
<path d="M9188 7265
L9207 7303
L9207 7378
L9188 7415
L9151 7434
L9001 7434
L8963 7415
L8945 7378
L8945 7303
L8963 7265
L9001 7246
L9038 7246
L9076 7434
" />
<path d="M8832 8024
L8813 8062
L8795 8081
L8757 8099
L8645 8099
L8607 8081
L8588 8062
L8570 8024
L8570 7968
L8588 7931
L8607 7912
L8645 7893
L8757 7893
L8795 7912
L8813 7931
L8832 7968
L8832 8024
" />
<path d="M8813 7743
L8832 7706
L8832 7631
L8813 7593
L8776 7574
L8757 7574
L8720 7593
L8701 7631
L8701 7687
L8682 7724
L8645 7743
L8626 7743
L8588 7724
L8570 7687
L8570 7631
L8588 7593
" />
<path d="M8813 7237
L8832 7274
L8832 7349
L8813 7387
L8795 7406
L8757 7424
L8645 7424
L8607 7406
L8588 7387
L8570 7349
L8570 7274
L8588 7237
" />
<path d="M8145 7940
L8463 7940
L8501 7959
L8520 7977
L8538 8015
L8538 8071
L8520 8109
" />
<path d="M8388 7940
L8407 7977
L8407 8052
L8388 8090
L8370 8109
L8332 8127
L8220 8127
L8182 8109
L8163 8090
L8145 8052
L8145 7977
L8163 7940
" />
<path d="M8145 7753
L8407 7753
" />
<path d="M8182 7753
L8163 7734
L8145 7696
L8145 7640
L8163 7603
L8201 7584
L8407 7584
" />
<path d="M8407 7228
L8013 7228
" />
<path d="M8388 7228
L8407 7265
L8407 7340
L8388 7378
L8370 7396
L8332 7415
L8220 7415
L8182 7396
L8163 7378
L8145 7340
L8145 7265
L8163 7228
" />
<path d="M7670 8256
L7932 8162
L7670 8068
" />
<path d="M7932 7862
L7913 7899
L7895 7918
L7857 7937
L7745 7937
L7707 7918
L7688 7899
L7670 7862
L7670 7806
L7688 7768
L7707 7749
L7745 7731
L7857 7731
L7895 7749
L7913 7768
L7932 7806
L7932 7862
" />
<path d="M7670 7393
L7932 7393
" />
<path d="M7670 7562
L7876 7562
L7913 7543
L7932 7506
L7932 7449
L7913 7412
L7895 7393
" />
<path d="M7670 7262
L7670 7112
" />
<path d="M7538 7206
L7876 7206
L7913 7187
L7932 7149
L7932 7112
" />
<path d="M7382 7868
L7120 7868
" />
<path d="M7195 7868
L7157 7849
L7138 7831
L7120 7793
L7120 7756
" />
<path d="M7363 7643
L7382 7606
L7382 7531
L7363 7493
L7326 7474
L7307 7474
L7270 7493
L7251 7531
L7251 7587
L7232 7624
L7195 7643
L7176 7643
L7138 7624
L7120 7587
L7120 7531
L7138 7493
" />
<path d="M7120 7362
L7120 7212
" />
<path d="M6988 7306
L7326 7306
L7363 7287
L7382 7249
L7382 7212
" />
<path d="M12732 19858
L12713 19896
L12676 19914
L12338 19914
" />
<path d="M12713 19558
L12732 19596
L12732 19671
L12713 19708
L12676 19727
L12526 19727
L12488 19708
L12470 19671
L12470 19596
L12488 19558
L12526 19539
L12563 19539
L12601 19727
" />
<path d="M12732 19202
L12338 19202
" />
<path d="M12713 19202
L12732 19239
L12732 19314
L12713 19352
L12695 19371
L12657 19389
L12545 19389
L12507 19371
L12488 19352
L12470 19314
L12470 19239
L12488 19202
" />
<path d="M11663 20064
L11682 20026
L11682 19951
L11663 19914
L11626 19895
L11607 19895
L11570 19914
L11551 19951
L11551 20007
L11532 20045
L11495 20064
L11476 20064
L11438 20045
L11420 20007
L11420 19951
L11438 19914
" />
<path d="M11663 19558
L11682 19595
L11682 19670
L11663 19708
L11645 19726
L11607 19745
L11495 19745
L11457 19726
L11438 19708
L11420 19670
L11420 19595
L11438 19558
" />
<path d="M11682 19333
L11663 19370
L11626 19389
L11288 19389
" />
<path d="M11682 19183
L11288 19183
" />
<path d="M11532 19145
L11682 19033
" />
<path d="M11420 19033
L11570 19183
" />
<path d="M10663 20082
L10682 20045
L10682 19970
L10663 19932
L10626 19914
L10607 19914
L10570 19932
L10551 19970
L10551 20026
L10532 20064
L10495 20082
L10476 20082
L10438 20064
L10420 20026
L10420 19970
L10438 19932
" />
<path d="M10682 19576
L10288 19576
" />
<path d="M10663 19576
L10682 19614
L10682 19689
L10663 19726
L10645 19745
L10607 19764
L10495 19764
L10457 19745
L10438 19726
L10420 19689
L10420 19614
L10438 19576
" />
<path d="M10682 19389
L10420 19389
" />
<path d="M10288 19389
L10307 19408
L10326 19389
L10307 19370
L10288 19389
L10326 19389
" />
<path d="M10420 19201
L10682 19201
" />
<path d="M10457 19201
L10438 19183
L10420 19145
L10420 19089
L10438 19051
L10476 19033
L10682 19033
" />
<path d="M9707 19839
L9313 19839
" />
<path d="M9688 19839
L9707 19876
L9707 19951
L9688 19989
L9670 20007
L9632 20026
L9520 20026
L9482 20007
L9463 19989
L9445 19951
L9445 19876
L9463 19839
" />
<path d="M9295 19370
L9801 19708
" />
<path d="M9688 19070
L9707 19108
L9707 19183
L9688 19220
L9670 19239
L9632 19258
L9520 19258
L9482 19239
L9463 19220
L9445 19183
L9445 19108
L9463 19070
" />
<path d="M8682 19948
L8420 19948
" />
<path d="M8495 19948
L8457 19929
L8438 19911
L8420 19873
L8420 19836
" />
<path d="M8663 19723
L8682 19686
L8682 19611
L8663 19573
L8626 19554
L8607 19554
L8570 19573
L8551 19611
L8551 19667
L8532 19704
L8495 19723
L8476 19723
L8438 19704
L8420 19667
L8420 19611
L8438 19573
" />
<path d="M8420 19442
L8420 19292
" />
<path d="M8288 19386
L8626 19386
L8663 19367
L8682 19329
L8682 19292
" />
<path d="M7688 19945
L7707 19907
L7707 19832
L7688 19795
L7651 19776
L7632 19776
L7595 19795
L7576 19832
L7576 19889
L7557 19926
L7520 19945
L7501 19945
L7463 19926
L7445 19889
L7445 19832
L7463 19795
" />
<path d="M7688 19439
L7707 19476
L7707 19551
L7688 19589
L7670 19608
L7632 19626
L7520 19626
L7482 19608
L7463 19589
L7445 19551
L7445 19476
L7463 19439
" />
<path d="M7688 19120
L7707 19158
L7707 19233
L7688 19270
L7651 19289
L7501 19289
L7463 19270
L7445 19233
L7445 19158
L7463 19120
L7501 19101
L7538 19101
L7576 19289
" />
<path d="M6395 19795
L6713 19795
L6751 19814
L6770 19832
L6788 19870
L6788 19926
L6770 19964
" />
<path d="M6638 19795
L6657 19832
L6657 19907
L6638 19945
L6620 19964
L6582 19982
L6470 19982
L6432 19964
L6413 19945
L6395 19907
L6395 19832
L6413 19795
" />
<path d="M6395 19608
L6657 19608
" />
<path d="M6432 19608
L6413 19589
L6395 19551
L6395 19495
L6413 19458
L6451 19439
L6657 19439
" />
<path d="M6657 19083
L6263 19083
" />
<path d="M6638 19083
L6657 19120
L6657 19195
L6638 19233
L6620 19251
L6582 19270
L6470 19270
L6432 19251
L6413 19233
L6395 19195
L6395 19120
L6413 19083
" />
<path d="M5420 19979
L5682 19886
L5420 19792
" />
<path d="M5663 19473
L5682 19511
L5682 19586
L5663 19623
L5645 19642
L5607 19661
L5495 19661
L5457 19642
L5438 19623
L5420 19586
L5420 19511
L5438 19473
" />
<path d="M5663 19136
L5682 19173
L5682 19248
L5663 19286
L5645 19304
L5607 19323
L5495 19323
L5457 19304
L5438 19286
L5420 19248
L5420 19173
L5438 19136
" />
<path d="M1259 11866
L1222 11848
L1203 11810
L1203 11473
" />
<path d="M1559 11848
L1522 11866
L1447 11866
L1409 11848
L1390 11810
L1390 11660
L1409 11623
L1447 11604
L1522 11604
L1559 11623
L1578 11660
L1578 11698
L1390 11735
" />
<path d="M1915 11866
L1915 11473
" />
<path d="M1915 11848
L1878 11866
L1803 11866
L1765 11848
L1747 11829
L1728 11791
L1728 11679
L1747 11641
L1765 11623
L1803 11604
L1878 11604
L1915 11623
" />
<path d="M1339 17256
L1302 17238
L1283 17200
L1283 16863
" />
<path d="M1639 17238
L1602 17256
L1527 17256
L1489 17238
L1470 17200
L1470 17050
L1489 17013
L1527 16994
L1602 16994
L1639 17013
L1658 17050
L1658 17088
L1470 17125
" />
<path d="M1995 17256
L1995 16863
" />
<path d="M1995 17238
L1958 17256
L1883 17256
L1845 17238
L1827 17219
L1808 17181
L1808 17069
L1827 17031
L1845 17013
L1883 16994
L1958 16994
L1995 17013
" />
<path d="M16139 17256
L16102 17238
L16083 17200
L16083 16863
" />
<path d="M16439 17238
L16402 17256
L16327 17256
L16289 17238
L16270 17200
L16270 17050
L16289 17013
L16327 16994
L16402 16994
L16439 17013
L16458 17050
L16458 17088
L16270 17125
" />
<path d="M16795 17256
L16795 16863
" />
<path d="M16795 17238
L16758 17256
L16683 17256
L16645 17238
L16627 17219
L16608 17181
L16608 17069
L16627 17031
L16645 17013
L16683 16994
L16758 16994
L16795 17013
" />
<path d="M16059 11826
L16022 11808
L16003 11770
L16003 11433
" />
<path d="M16359 11808
L16322 11826
L16247 11826
L16209 11808
L16190 11770
L16190 11620
L16209 11583
L16247 11564
L16322 11564
L16359 11583
L16378 11620
L16378 11658
L16190 11695
" />
<path d="M16715 11826
L16715 11433
" />
<path d="M16715 11808
L16678 11826
L16603 11826
L16565 11808
L16547 11789
L16528 11751
L16528 11639
L16547 11601
L16565 11583
L16603 11564
L16678 11564
L16715 11583
" />
<path d="M2843 11256
L2843 10863
" />
<path d="M2881 11106
L2993 11256
" />
<path d="M2993 10994
L2843 11144
" />
<path d="M2973 10296
L2973 10090
L2955 10053
L2917 10034
L2842 10034
L2805 10053
" />
<path d="M2973 10278
L2936 10296
L2842 10296
L2805 10278
L2786 10240
L2786 10203
L2805 10165
L2842 10146
L2936 10146
L2973 10128
" />
<path d="M2973 15696
L2973 15490
L2955 15453
L2917 15434
L2842 15434
L2805 15453
" />
<path d="M2973 15678
L2936 15696
L2842 15696
L2805 15678
L2786 15640
L2786 15603
L2805 15565
L2842 15546
L2936 15546
L2973 15528
" />
<path d="M2843 16656
L2843 16263
" />
<path d="M2881 16506
L2993 16656
" />
<path d="M2993 16394
L2843 16544
" />
<path d="M15043 16556
L15043 16163
" />
<path d="M15081 16406
L15193 16556
" />
<path d="M15193 16294
L15043 16444
" />
<path d="M15173 15596
L15173 15390
L15155 15353
L15117 15334
L15042 15334
L15005 15353
" />
<path d="M15173 15578
L15136 15596
L15042 15596
L15005 15578
L14986 15540
L14986 15503
L15005 15465
L15042 15446
L15136 15446
L15173 15428
" />
<path d="M15173 10196
L15173 9990
L15155 9953
L15117 9934
L15042 9934
L15005 9953
" />
<path d="M15173 10178
L15136 10196
L15042 10196
L15005 10178
L14986 10140
L14986 10103
L15005 10065
L15042 10046
L15136 10046
L15173 10028
" />
<path d="M15178 11236
L15178 10843
" />
<path d="M15216 11086
L15328 11236
" />
<path d="M15328 10974
L15178 11124
" />
<path d="M5642 5276
L5417 5276
" />
<path d="M5529 5276
L5529 4883
L5492 4939
L5454 4976
L5417 4995
" />
<path d="M12492 5051
L12454 5033
L12435 5014
L12417 4976
L12417 4958
L12435 4920
L12454 4901
L12492 4883
L12567 4883
L12604 4901
L12623 4920
L12642 4958
L12642 4976
L12623 5014
L12604 5033
L12567 5051
L12492 5051
L12454 5070
L12435 5089
L12417 5126
L12417 5201
L12435 5239
L12454 5258
L12492 5276
L12567 5276
L12604 5258
L12623 5239
L12642 5201
L12642 5126
L12623 5089
L12604 5070
L12567 5051
" />
<path d="M3073 5288
L3035 5306
L2960 5306
L2923 5288
L2904 5269
L2885 5231
L2885 5119
L2904 5081
L2923 5063
L2960 5044
L3035 5044
L3073 5063
" />
<path d="M13216 5036
L13085 4849
" />
<path d="M12991 5036
L12991 4643
L13141 4643
L13178 4661
L13197 4680
L13216 4718
L13216 4774
L13197 4811
L13178 4830
L13141 4849
L12991 4849
" />
<path d="M13441 5036
L13403 5018
L13385 4980
L13385 4643
" />
<path d="M13741 5018
L13703 5036
L13628 5036
L13591 5018
L13572 4980
L13572 4830
L13591 4793
L13628 4774
L13703 4774
L13741 4793
L13760 4830
L13760 4868
L13572 4905
" />
<path d="M14097 5036
L14097 4643
" />
<path d="M14097 5018
L14060 5036
L13985 5036
L13947 5018
L13928 4999
L13910 4961
L13910 4849
L13928 4811
L13947 4793
L13985 4774
L14060 4774
L14097 4793
" />
<path d="M2978 5215
L2960 5234
L2903 5253
L2866 5253
L2810 5234
L2772 5197
L2753 5159
L2735 5084
L2735 5028
L2753 4953
L2772 4915
L2810 4878
L2866 4859
L2903 4859
L2960 4878
L2978 4897
" />
<path d="M3353 5253
L3128 5253
" />
<path d="M3241 5253
L3241 4859
L3203 4915
L3166 4953
L3128 4972
" />
<path d="M2352 16342
L2352 16529
L1958 16529
" />
<path d="M2352 16210
L1958 16210
L1958 16117
L1977 16060
L2015 16023
L2052 16004
L2127 15985
L2183 15985
L2258 16004
L2296 16023
L2333 16060
L2352 16117
L2352 16210
" />
<path d="M2352 15611
L2352 15836
" />
<path d="M2352 15723
L1958 15723
L2015 15761
L2052 15798
L2071 15836
" />
<path d="M2352 10921
L2352 11108
L1958 11108
" />
<path d="M2352 10789
L1958 10789
L1958 10696
L1977 10639
L2015 10602
L2052 10583
L2127 10564
L2183 10564
L2258 10583
L2296 10602
L2333 10639
L2352 10696
L2352 10789
" />
<path d="M1996 10414
L1977 10396
L1958 10358
L1958 10264
L1977 10227
L1996 10208
L2033 10189
L2071 10189
L2127 10208
L2352 10433
L2352 10189
" />
<path d="M17352 10921
L17352 11108
L16958 11108
" />
<path d="M17352 10789
L16958 10789
L16958 10696
L16977 10639
L17015 10602
L17052 10583
L17127 10564
L17183 10564
L17258 10583
L17296 10602
L17333 10639
L17352 10696
L17352 10789
" />
<path d="M16958 10433
L16958 10189
L17108 10321
L17108 10264
L17127 10227
L17146 10208
L17183 10189
L17277 10189
L17315 10208
L17333 10227
L17352 10264
L17352 10377
L17333 10414
L17315 10433
" />
<path d="M17252 16321
L17252 16508
L16858 16508
" />
<path d="M17252 16189
L16858 16189
L16858 16096
L16877 16039
L16915 16002
L16952 15983
L17027 15964
L17083 15964
L17158 15983
L17196 16002
L17233 16039
L17252 16096
L17252 16189
" />
<path d="M16990 15627
L17252 15627
" />
<path d="M16840 15721
L17121 15814
L17121 15571
" />
<path d="M14893 5153
L14762 4965
" />
<path d="M14668 5153
L14668 4759
L14818 4759
L14855 4778
L14874 4797
L14893 4834
L14893 4890
L14874 4928
L14855 4947
L14818 4965
L14668 4965
" />
<path d="M15268 5153
L15043 5153
" />
<path d="M15155 5153
L15155 4759
L15118 4815
L15080 4853
L15043 4872
" />
</g>
<g style="fill:#000000; fill-opacity:0.0; 
stroke:#000000; stroke-width:19.685; stroke-opacity:1; 
stroke-linecap:round; stroke-linejoin:round;">
<path d="M3942 3917
L3942 4799
" />
<path d="M3942 4799
L2146 4799
" />
<path d="M2146 4799
L2146 3917
" />
<path d="M2146 3917
L3942 3917
" />
<path d="M1190 16819
L1190 15339
" />
<path d="M1898 16819
L1190 16819
" />
<path d="M1898 15339
L1898 16819
" />
<path d="M1190 15339
L1898 15339
" />
<path d="M1190 9918
L1898 9918
" />
<path d="M1898 9918
L1898 11398
" />
<path d="M1898 11398
L1190 11398
" />
<path d="M1190 11398
L1190 9918
" />
<path d="M16190 11398
L16190 9918
" />
<path d="M16898 11398
L16190 11398
" />
<path d="M16898 9918
L16898 11398
" />
<path d="M16190 9918
L16898 9918
" />
<path d="M16090 15318
L16798 15318
" />
<path d="M16798 15318
L16798 16798
" />
<path d="M16798 16798
L16090 16798
" />
<path d="M16090 16798
L16090 15318
" />
<path d="M15923 3817
L15923 4699
" />
<path d="M15923 4699
L13994 4699
" />
<path d="M13994 4699
L13994 3817
" />
<path d="M13994 3817
L15923 3817
" />
</g>
<g style="fill:#000000; fill-opacity:0.0; 
stroke:#000000; stroke-width:59.0551; stroke-opacity:1; 
stroke-linecap:round; stroke-linejoin:round;">
<path d="M34 21348
L34 3358
" />
<path d="M18034 21348
L34 21348
" />
<path d="M18024 3348
L18034 21348
" />
<path d="M34 3358
L18024 3348
" />
</g> 
</svg>
